<svg width="111" height="94" viewBox="0 0 111 94" fill="none" xmlns="http://www.w3.org/2000/svg">
<path d="M46.1008 80.1611L0 0H22.3094L60.2444 65.9623L46.1008 80.1611Z" fill="white"/>
<path d="M53.0831 2.33643L38.7283 25.2523L46.2319 37.3842L51.3343 32.2619L77.6105 77.9514L87.0899 61.4684L53.0831 2.33643Z" fill="white"/>
<path d="M111 0H95.1556L77.879 39.5607L88.3524 54.8184L111 0Z" fill="#E50914"/>
<path d="M78.83 91.1243V83.0723H81.3508C82.1377 83.0723 82.8327 83.2448 83.4362 83.5899C84.0472 83.9272 84.5247 84.3989 84.8684 85.0047C85.2199 85.6106 85.3955 86.3083 85.3955 87.0983C85.3955 87.8805 85.2199 88.5744 84.8684 89.1803C84.5247 89.7862 84.0472 90.2616 83.4362 90.6066C82.8327 90.9517 82.1377 91.1243 81.3508 91.1243H78.83ZM80.1592 89.882H81.3508C81.7252 89.882 82.0764 89.8129 82.405 89.6749C82.7335 89.5291 83.0199 89.3298 83.2643 89.0768C83.5087 88.8237 83.6997 88.5284 83.8372 88.191C83.9747 87.8537 84.0435 87.4894 84.0435 87.0983C84.0435 86.7072 83.9747 86.3429 83.8372 86.0055C83.6997 85.6681 83.5087 85.3728 83.2643 85.1198C83.0199 84.8667 82.7335 84.6712 82.405 84.5331C82.0764 84.3874 81.7252 84.3146 81.3508 84.3146H80.1592V89.882ZM88.4011 91.1243V83.0723H93.3395V84.2916H89.7302V86.4311H92.9156V87.6274H89.7302V89.905H93.3739V91.1243H88.4011ZM99.2959 91.1243L102.435 83.0723H103.856L100.614 91.1243H99.2959ZM99.1584 91.1243L95.9158 83.0723H97.3251L100.465 91.1243H99.1584Z" fill="#E50914"/>
</svg>
