<svg width="66" height="66" viewBox="0 0 66 66" fill="none" xmlns="http://www.w3.org/2000/svg">
<g clip-path="url(#clip0_12_114)">
<path d="M0 0V55.44C0 58.2407 1.11257 60.9267 3.09295 62.907C5.07334 64.8874 7.75931 66 10.56 66H55.44C58.2407 66 60.9267 64.8874 62.907 62.907C64.8874 60.9267 66 58.2407 66 55.44V10.56C66 7.75931 64.8874 5.07334 62.907 3.09295C60.9267 1.11257 58.2407 0 55.44 0L0 0ZM39.204 35.97C43.494 35.97 45.474 38.94 45.54 43.23H41.118C41.184 42.438 40.986 41.58 40.722 40.92C40.458 40.392 39.93 40.194 39.204 40.194C37.95 40.194 37.29 40.92 37.29 42.504C37.224 44.088 38.082 44.946 39.402 45.474C41.382 46.266 43.824 47.52 44.682 49.038C45.474 50.226 45.87 51.744 45.87 53.592C45.87 58.014 43.362 60.72 39.006 60.72C34.452 60.72 32.406 57.882 32.34 53.328H36.96C36.96 55.506 37.686 56.562 39.138 56.562C39.864 56.562 40.392 56.364 40.656 55.902C41.184 55.044 41.316 52.668 40.524 51.744C39.666 50.622 38.016 50.094 36.894 49.5C35.376 48.774 34.254 47.916 33.528 46.926C32.868 45.936 32.538 44.484 32.538 42.702C32.538 38.742 35.112 35.904 39.204 35.97ZM54.054 35.97C58.41 35.97 60.39 38.94 60.456 43.23H56.034C56.034 42.438 55.902 41.58 55.572 40.92C55.308 40.392 54.846 40.194 54.12 40.194C52.8 40.194 52.14 40.92 52.14 42.504C52.14 44.088 52.932 44.946 54.318 45.474C56.232 46.266 58.74 47.52 59.598 49.038C60.324 50.226 60.72 51.744 60.72 53.592C60.786 58.014 58.278 60.72 53.922 60.72C49.302 60.72 47.256 57.816 47.19 53.328H51.81C51.81 55.374 52.536 56.562 53.988 56.562C54.714 56.562 55.242 56.364 55.506 55.902C56.1 55.044 56.232 52.668 55.374 51.744C54.582 50.622 52.932 50.094 51.744 49.5C50.226 48.774 49.104 47.916 48.444 46.926C47.784 45.936 47.454 44.484 47.454 42.702C47.388 38.742 49.962 35.904 54.054 35.97ZM23.7188 36.0195C25.674 36.003 27.621 36.564 28.776 37.752C29.964 38.94 30.624 40.854 30.558 43.23H25.674C25.74 41.976 25.41 41.052 24.486 40.59C23.628 40.194 22.374 40.458 22.044 41.25C21.714 41.976 21.516 42.834 21.582 43.626V53.262C21.582 55.308 22.308 56.364 23.694 56.364C23.9872 56.3769 24.279 56.3174 24.5438 56.1908C24.8085 56.0642 25.038 55.8743 25.212 55.638C25.674 54.978 25.74 54.12 25.674 53.328H30.558C30.822 57.816 27.852 60.786 23.496 60.72C19.272 60.72 16.632 58.344 16.698 53.922V42.834C16.698 40.59 17.358 38.874 18.612 37.752C19.8 36.63 21.7635 36.036 23.7188 36.0195Z" fill="white"/>
</g>
<defs>
<clipPath id="clip0_12_114">
<rect width="66" height="66" fill="white"/>
</clipPath>
</defs>
</svg>
