<svg width="66" height="66" viewBox="0 0 66 66" fill="none" xmlns="http://www.w3.org/2000/svg">
<path d="M43.593 24.6978H30.976V0H43.593C50.402 0 55.9405 5.5385 55.9405 12.3475C55.9405 19.1565 50.402 24.6978 43.593 24.6978ZM35.0213 20.6525H43.593C48.1718 20.6525 51.8953 16.9263 51.8953 12.3503C51.8953 7.77425 48.169 4.048 43.593 4.048H35.0213V20.6525ZM35.0213 24.6978H22.407C15.598 24.6978 10.0595 19.1593 10.0595 12.3503C10.0595 5.54125 15.598 0 22.407 0H35.024V24.6978H35.0213ZM22.407 4.04525C17.8283 4.04525 14.1048 7.7715 14.1048 12.3475C14.1048 16.9235 17.8283 20.6525 22.407 20.6525H30.9788V4.04525H22.407ZM35.0213 45.3475H22.407C15.598 45.3475 10.0595 39.809 10.0595 33C10.0595 26.191 15.598 20.6525 22.407 20.6525H35.024V45.3475H35.0213ZM22.407 24.6978C17.8283 24.6978 14.1048 28.424 14.1048 33C14.1048 37.576 17.831 41.3022 22.407 41.3022H30.9788V24.6978H22.407ZM22.473 66C15.6283 66 10.0568 60.4615 10.0568 53.6525C10.0568 46.8435 15.5953 41.305 22.4043 41.305H35.0213V53.5177C35.0213 60.401 29.392 66 22.473 66ZM22.407 45.3475C20.206 45.3504 18.096 46.226 16.5396 47.7824C14.9833 49.3387 14.1077 51.4488 14.1048 53.6498C14.1048 58.2285 17.8585 61.952 22.4758 61.952C27.1645 61.952 30.9815 58.168 30.9815 53.515V45.3475H22.407ZM43.593 45.3475H43.3235C36.5145 45.3475 30.976 39.809 30.976 33C30.976 26.191 36.5145 20.6525 43.3235 20.6525H43.593C50.402 20.6525 55.9405 26.191 55.9405 33C55.9405 39.809 50.402 45.3475 43.593 45.3475ZM43.3263 24.6978C38.7475 24.6978 35.024 28.424 35.024 33C35.024 37.576 38.7503 41.3022 43.3263 41.3022H43.5958C48.1745 41.3022 51.898 37.576 51.898 33C51.898 28.424 48.169 24.6978 43.593 24.6978H43.3263Z" fill="white"/>
</svg>
