<svg width="66" height="66" viewBox="0 0 66 66" fill="none" xmlns="http://www.w3.org/2000/svg">
<g clip-path="url(#clip0_12_106)">
<path d="M64.7515 30.0577L35.9342 1.2432C34.2733 -0.415051 31.5837 -0.415051 29.9172 1.2432L23.947 7.22445L31.537 14.8144C33.3108 14.2232 35.3293 14.6219 36.7318 16.0272C38.1507 17.4434 38.5412 19.4867 37.9362 21.2522L45.2457 28.5672C47.0195 27.9539 49.06 28.3527 50.4708 29.7634C52.4535 31.7434 52.4535 34.9445 50.4708 36.9244C48.4935 38.9017 45.298 38.9017 43.3208 36.9244C41.8385 35.4367 41.4673 33.2477 42.2098 31.4354L35.365 24.6264V42.5702C35.849 42.8067 36.3055 43.1284 36.707 43.5272C38.6677 45.5099 38.6677 48.7054 36.707 50.6772C34.7297 52.6599 31.5123 52.6599 29.5323 50.6772C27.555 48.6999 27.555 45.5099 29.5323 43.5327C30.0328 43.0377 30.5965 42.6637 31.196 42.4162V24.2964C30.5992 24.0462 30.03 23.6859 29.546 23.1937C28.0473 21.6949 27.687 19.5032 28.457 17.6689L20.999 10.1752L1.2375 29.9229C-0.4125 31.5867 -0.4125 34.2789 1.2375 35.9427L30.0575 64.7544C31.7185 66.4155 34.408 66.4155 36.069 64.7544L64.7515 36.0719C66.4152 34.4137 66.4152 31.7214 64.7515 30.0577Z" fill="white"/>
</g>
<defs>
<clipPath id="clip0_12_106">
<rect width="66" height="66" fill="white"/>
</clipPath>
</defs>
</svg>
