<svg width="66" height="66" viewBox="0 0 66 66" fill="none" xmlns="http://www.w3.org/2000/svg">
<g clip-path="url(#clip0_12_116)">
<path d="M32.956 0C14.7235 0 0 15.7883 0 34.241C0 49.0071 9.4545 61.5289 22.5637 65.9423C24.2137 66.2569 24.8187 65.2239 24.8187 64.3356C24.8187 63.542 24.7913 61.4398 24.7775 58.6553C15.598 60.6713 13.662 54.1723 13.662 54.1723C12.1605 50.3158 9.99075 49.2855 9.99075 49.2855C7.0015 47.2139 10.2218 47.2557 10.2218 47.2557C13.5355 47.4896 15.2762 50.6973 15.2762 50.6973C18.2188 55.8068 23.001 54.331 24.8875 53.4762C25.1845 51.3154 26.0343 49.8424 26.9775 49.0071C19.6488 48.1717 11.946 45.2982 11.946 32.4952C11.946 28.8475 13.2248 25.8681 15.3422 23.5291C14.971 22.6854 13.8573 19.2884 15.631 14.6857C15.631 14.6857 18.3948 13.7891 24.706 18.1106C27.346 17.3671 30.151 16.9996 32.956 16.9828C35.761 16.9996 38.566 17.3671 41.206 18.1106C47.476 13.7891 50.2397 14.6857 50.2397 14.6857C52.0135 19.2884 50.8997 22.6854 50.5697 23.5291C52.6735 25.8681 53.9522 28.8475 53.9522 32.4952C53.9522 45.3316 46.2385 48.1578 38.896 48.9792C40.051 49.9817 41.1235 52.031 41.1235 55.1608C41.1235 59.6326 41.0822 63.2246 41.0822 64.3106C41.0822 65.1877 41.6597 66.2319 43.351 65.8977C56.5537 61.515 66 48.9848 66 34.241C66 15.7883 51.1803 0 32.956 0Z" fill="white"/>
</g>
<defs>
<clipPath id="clip0_12_116">
<rect width="66" height="66" fill="white"/>
</clipPath>
</defs>
</svg>
