<svg width="66" height="66" viewBox="0 0 66 66" fill="none" xmlns="http://www.w3.org/2000/svg">
<g clip-path="url(#clip0_12_118)">
<path d="M0 0H66V66H0V0ZM60.5935 50.259C60.1123 47.2477 58.1515 44.7178 52.3353 42.3582C50.3112 41.4095 48.0617 40.7495 47.3935 39.2232C47.1432 38.3158 47.1047 37.8207 47.267 37.2845C47.6795 35.508 49.7832 34.9745 51.4332 35.4695C52.5057 35.7995 53.4958 36.6245 54.1173 37.9445C56.9608 36.0855 56.9608 36.0855 58.9435 34.8507C58.201 33.6958 57.8325 33.198 57.332 32.7057C55.5995 30.767 53.2923 29.777 49.5385 29.8623L47.5998 30.107C45.7407 30.5607 43.9697 31.5508 42.8973 32.8708C39.7622 36.421 40.667 42.6085 44.462 45.166C48.2157 47.971 53.7048 48.587 54.406 51.2297C55.066 54.4473 52.0135 55.4785 48.9995 55.1073C46.7693 54.6122 45.5345 53.4957 44.1732 51.4332L39.1408 54.3235C39.7183 55.6435 40.3783 56.2183 41.3683 57.3733C46.1533 62.2023 58.1157 61.9548 60.2635 54.6122C60.3433 54.3647 60.9235 52.6735 60.467 50.0747L60.5935 50.259ZM35.8902 30.3353H29.7083C29.7083 35.6647 29.6835 40.9613 29.6835 46.299C29.6835 49.687 29.8568 52.7973 29.304 53.7543C28.3965 55.649 26.059 55.407 24.9975 55.0742C23.9085 54.5353 23.3558 53.7928 22.715 52.723C22.5417 52.4343 22.4125 52.184 22.3658 52.184L17.347 55.2777C18.1858 57.0103 19.4095 58.5008 20.988 59.4495C23.3393 60.852 26.499 61.3058 29.8072 60.5633C31.9605 59.9418 33.8167 58.663 34.7875 56.683C36.19 54.1255 35.893 50.9905 35.8792 47.4815C35.9123 41.833 35.8792 36.1818 35.8792 30.4893L35.8902 30.3353Z" fill="white"/>
</g>
<defs>
<clipPath id="clip0_12_118">
<rect width="66" height="66" fill="white"/>
</clipPath>
</defs>
</svg>
