<svg width="66" height="66" viewBox="0 0 66 66" fill="none" xmlns="http://www.w3.org/2000/svg">
<path d="M39.1325 33.0083C39.1325 34.6387 38.485 36.2023 37.3325 37.3554C36.1799 38.5084 34.6166 39.1566 32.9862 39.1573C31.3554 39.1573 29.7914 38.5095 28.6383 37.3563C27.4851 36.2032 26.8372 34.6392 26.8372 33.0083C26.8372 31.378 27.4847 29.8144 28.6373 28.6613C29.7898 27.5082 31.3532 26.8601 32.9835 26.8593C34.6143 26.8593 36.1783 27.5072 37.3315 28.6603C38.4847 29.8135 39.1325 31.3775 39.1325 33.0083ZM46.4145 3.61084C42.713 3.61084 37.8703 6.25084 32.9725 10.8213C28.0775 6.27559 23.232 3.66584 19.5333 3.66584C18.4058 3.66584 17.38 3.92159 16.4918 4.43034C12.7105 6.61109 11.8635 13.4063 13.816 21.9341C5.445 24.5191 0 28.6523 0 33.0083C0 37.3808 5.4725 41.5251 13.8683 44.0908C11.9323 52.6516 12.7958 59.4578 16.5853 61.6358C17.4653 62.1501 18.4827 62.3921 19.6157 62.3921C23.3145 62.3921 28.16 59.7521 33.0578 55.1761C37.9528 59.7246 42.7983 62.3343 46.497 62.3343C47.6245 62.3343 48.6502 62.0868 49.5385 61.5781C53.317 59.4001 54.1667 52.6048 52.2142 44.0743C60.555 41.5113 66 37.3698 66 33.0083C66 28.6358 60.5275 24.4916 52.1318 21.9203C54.0678 13.3678 53.2043 6.55609 49.4147 4.37534C48.5402 3.86934 47.5255 3.61359 46.4145 3.61084ZM46.4007 6.60834V6.62484C47.0195 6.62484 47.5173 6.74584 47.9352 6.97409C49.7668 8.02459 50.5615 12.0203 49.9427 17.1601C49.7942 18.4251 49.5522 19.7588 49.2552 21.1201C46.6152 20.4711 43.7388 19.9733 40.711 19.6516C38.896 17.1628 37.0122 14.9023 35.1147 12.9223C39.4928 8.85234 43.604 6.61934 46.4035 6.61109L46.4007 6.60834ZM19.5333 6.66334C22.3162 6.66334 26.4468 8.88534 30.8358 12.9333C28.9493 14.9133 27.0682 17.1601 25.2808 19.6488C22.2365 19.9706 19.3573 20.4683 16.72 21.1283C16.412 19.7808 16.1838 18.4773 16.0215 17.2233C15.389 12.0863 16.17 8.09334 17.985 7.02909C18.5075 6.78159 19.085 6.67709 19.5333 6.66334ZM32.9587 15.0508C34.21 16.3378 35.4613 17.7788 36.6987 19.3518C35.4888 19.2968 34.2513 19.2583 33 19.2583C31.735 19.2583 30.4838 19.2858 29.26 19.3518C30.47 17.7788 31.7212 16.3406 32.9587 15.0508ZM33 22.2723C35.035 22.2723 37.0617 22.3658 39.0555 22.5281C40.172 24.1286 41.261 25.8363 42.3088 27.6431C43.3317 29.4031 44.2612 31.1906 45.1082 32.9946C44.2612 34.7958 43.3318 36.5971 42.3225 38.3571C41.2775 40.1721 40.1968 41.8991 39.0775 43.4996C37.0755 43.6728 35.046 43.7691 33 43.7691C30.965 43.7691 28.9383 43.6728 26.9445 43.5133C25.828 41.9128 24.739 40.2023 23.6912 38.3983C22.6682 36.6383 21.7388 34.8508 20.8918 33.0468C21.725 31.2401 22.6682 29.4361 23.6775 27.6733C24.7225 25.8583 25.8032 24.1368 26.9225 22.5363C28.9245 22.3603 30.954 22.2668 33 22.2668V22.2723ZM23.0037 22.9708C22.3438 24.0076 21.6838 25.0691 21.0677 26.1608C20.449 27.2333 19.8715 28.3113 19.3215 29.3893C18.5928 27.5853 17.974 25.7868 17.4625 24.0351C19.2225 23.6226 21.0787 23.2541 23.0037 22.9708ZM42.9688 22.9708C44.88 23.2541 46.7225 23.6033 48.4853 24.0351C47.9902 25.7731 47.3715 27.5606 46.6702 29.3508C46.1203 28.2783 45.5427 27.1976 44.9102 26.1223C44.2915 25.0443 43.6315 23.9938 42.9715 22.9708H42.9688ZM51.392 24.8271C52.723 25.2396 53.988 25.6988 55.1732 26.1966C59.9362 28.2316 63.0163 30.8936 63.0163 33.0056C63.0025 35.1176 59.9225 37.7906 55.1595 39.8118C54.0045 40.3068 52.7395 40.7523 51.4332 41.1676C50.6632 38.5331 49.6568 35.7886 48.4083 32.9726C49.6458 30.1758 50.6357 27.4451 51.392 24.8216V24.8271ZM14.5558 24.8381C15.3203 27.4781 16.3295 30.2198 17.5807 33.0331C16.3433 35.8298 15.3478 38.5606 14.5943 41.1841C13.2633 40.7716 11.9983 40.3096 10.8267 39.8091C6.06375 37.7823 2.98375 35.1176 2.98375 33.0056C2.98375 30.8936 6.06375 28.2151 10.8267 26.1966C11.9818 25.7016 13.2468 25.2561 14.5558 24.8381ZM46.6702 36.6081C47.399 38.4148 48.0177 40.2161 48.5292 41.9651C46.7692 42.3968 44.9102 42.7626 42.9852 43.0376C43.6452 42.0063 44.3053 40.9421 44.924 39.8531C45.5428 38.7806 46.1175 37.6861 46.6702 36.6081ZM19.3215 36.6631C19.8715 37.7411 20.449 38.8163 21.0815 39.8943C21.714 40.9668 22.3603 42.0173 23.0203 43.0376C21.109 42.7571 19.2665 42.4051 17.5037 41.9761C17.9987 40.2436 18.6203 38.4506 19.3188 36.6603L19.3215 36.6631ZM49.28 44.8773C49.588 46.2331 49.83 47.5393 49.9785 48.7906C50.611 53.9276 49.83 57.9206 48.015 58.9876C47.6107 59.2351 47.0855 59.3396 46.4667 59.3396C43.6838 59.3396 39.5532 57.1203 35.1642 53.0696C37.0508 51.0896 38.9318 48.8456 40.7192 46.3596C43.7635 46.0351 46.6427 45.5373 49.28 44.8773ZM16.7475 44.9048C19.3875 45.5483 22.264 46.0461 25.2917 46.3678C27.1067 48.8566 28.9905 51.1171 30.888 53.0943C26.5018 57.1726 22.385 59.4056 19.5855 59.4056C18.9805 59.3918 18.469 59.2681 18.0647 59.0426C16.2332 57.9976 15.4385 53.9991 16.0573 48.8593C16.2058 47.5943 16.4505 46.2633 16.7475 44.9048ZM29.2875 46.6648C30.4975 46.7198 31.735 46.7583 32.9862 46.7583C34.2513 46.7583 35.5025 46.7308 36.7262 46.6648C35.5163 48.2378 34.265 49.6761 33.0275 50.9686C31.7763 49.6761 30.525 48.2378 29.2875 46.6648Z" fill="white"/>
</svg>
