<svg width="66" height="66" viewBox="0 0 66 66" fill="none" xmlns="http://www.w3.org/2000/svg">
<g clip-path="url(#clip0_12_112)">
<path d="M3.09375 0C1.3805 0 0 1.3805 0 3.09375V62.9062C0 64.6195 1.3805 66 3.09375 66H62.9062C64.6195 66 66 64.6195 66 62.9062V3.09375C66 1.3805 64.6195 0 62.9062 0H3.09375ZM50.842 26.8125C52.525 26.8125 54.0155 26.9142 55.3162 27.1178C56.5431 27.3016 57.747 27.615 58.9077 28.0527V34.8123C58.3506 34.4269 57.7586 34.0946 57.1395 33.8195C56.501 33.5322 55.8419 33.2932 55.1678 33.1045C53.8906 32.7486 52.572 32.5637 51.2463 32.5545C50.4212 32.5545 49.6705 32.6315 48.994 32.791C48.3911 32.9199 47.8126 33.1446 47.2808 33.4565C46.8133 33.7425 46.4557 34.0863 46.2 34.485C45.9428 34.8869 45.8089 35.3554 45.815 35.8325C45.815 36.3715 45.9608 36.8582 46.244 37.2873C46.53 37.7163 46.937 38.1232 47.4623 38.5083C47.9875 38.8932 48.6255 39.2673 49.3763 39.6357C50.127 40.007 50.9768 40.3893 51.9228 40.7798C53.2153 41.3215 54.3757 41.899 55.4042 42.5067C56.4327 43.1172 57.3155 43.8075 58.0525 44.5775C58.7895 45.3447 59.3505 46.222 59.741 47.2093C60.1315 48.1965 60.3295 49.3433 60.3295 50.655C60.3295 52.4618 59.9858 53.9825 59.3038 55.209C58.6374 56.4186 57.6811 57.4439 56.5207 58.1927C55.27 58.9858 53.8838 59.5415 52.4315 59.8317C50.875 60.1618 49.2332 60.3268 47.509 60.3268C45.812 60.3342 44.118 60.1832 42.449 59.8758C41.005 59.626 39.6046 59.1694 38.291 58.52V51.2875C40.7764 53.4026 43.9292 54.5714 47.1927 54.5875C48.1085 54.5875 48.9088 54.505 49.5908 54.34C50.2755 54.175 50.8447 53.944 51.304 53.6525C51.7605 53.3555 52.1015 53.009 52.3298 52.6075C52.582 52.14 52.6968 51.6107 52.6608 51.0807C52.6248 50.5507 52.4394 50.0418 52.1263 49.6128C51.7177 49.0721 51.2179 48.6068 50.6495 48.2378C49.9445 47.7705 49.2023 47.3621 48.4303 47.0168C47.5152 46.5989 46.5919 46.1991 45.661 45.8177C43.1365 44.7645 41.2555 43.4748 40.0152 41.954C38.7777 40.4333 38.1562 38.5935 38.1562 36.4403C38.1562 34.7518 38.4945 33.3025 39.171 32.0897C39.8475 30.877 40.766 29.8787 41.932 29.095C43.1653 28.2814 44.5344 27.6956 45.9745 27.3652C47.5694 26.9892 49.2034 26.8037 50.842 26.8125ZM9.28125 27.3295H35.5795V33.286H26.1415V59.8125H18.6698V33.286H9.28125V27.3295Z" fill="white"/>
</g>
<defs>
<clipPath id="clip0_12_112">
<rect width="66" height="66" fill="white"/>
</clipPath>
</defs>
</svg>
